<svg xmlns="http://www.w3.org/2000/svg" viewBox="0 0 48 48" width="48" height="48">
  <!-- Brain-page hybrid: open book with neural connections -->
  <defs>
    <linearGradient id="g1" x1="0" y1="0" x2="1" y2="1">
      <stop offset="0%" stop-color="#4673ad"/>
      <stop offset="100%" stop-color="#2b4876"/>
    </linearGradient>
  </defs>
  <!-- Book/page shape -->
  <path d="M8 8 C8 6 10 4 12 4 L36 4 C38 4 40 6 40 8 L40 38 C40 40 38 42 36 42 L12 42 C10 42 8 40 8 38 Z" fill="url(#g1)" opacity="0.12" stroke="#4673ad" stroke-width="1.5"/>
  <!-- Page lines suggesting wiki content -->
  <line x1="14" y1="12" x2="34" y2="12" stroke="#4673ad" stroke-width="1.5" stroke-linecap="round" opacity="0.5"/>
  <line x1="14" y1="17" x2="30" y2="17" stroke="#4673ad" stroke-width="1.5" stroke-linecap="round" opacity="0.35"/>
  <line x1="14" y1="22" x2="32" y2="22" stroke="#4673ad" stroke-width="1.5" stroke-linecap="round" opacity="0.35"/>
  <!-- Knowledge graph nodes -->
  <circle cx="20" cy="30" r="3.5" fill="#4673ad"/>
  <circle cx="32" cy="28" r="2.5" fill="#2b4876"/>
  <circle cx="26" cy="36" r="2.5" fill="#6c92c2"/>
  <!-- Graph edges -->
  <line x1="23" y1="31" x2="30" y2="29" stroke="#4673ad" stroke-width="1.2" opacity="0.6"/>
  <line x1="21" y1="33" x2="24" y2="35" stroke="#4673ad" stroke-width="1.2" opacity="0.6"/>
  <line x1="28" y1="36" x2="31" y2="30" stroke="#4673ad" stroke-width="1.2" opacity="0.6"/>
</svg>
