<svg xmlns="http://www.w3.org/2000/svg" width="16" height="16" viewBox="0 0 16 16" fill="currentColor" aria-hidden="true">
  <path d="M5 3.25a.75.75 0 1 1-1.5 0 .75.75 0 0 1 1.5 0ZM5 12.75a.75.75 0 1 1-1.5 0 .75.75 0 0 1 1.5 0ZM12.5 3.25a.75.75 0 1 1-1.5 0 .75.75 0 0 1 1.5 0ZM4.25 4.5a.75.75 0 0 1 .75.75v3.5a.75.75 0 0 1-1.5 0v-3.5a.75.75 0 0 1 .75-.75ZM11 4.5a.75.75 0 0 1 .75.75v1a2.25 2.25 0 0 1-2.25 2.25H6.56l1.22-1.22a.75.75 0 0 0-1.06-1.06l-2.5 2.5a.75.75 0 0 0 0 1.06l2.5 2.5a.75.75 0 1 0 1.06-1.06L6.56 10h2.94A3.75 3.75 0 0 0 13.25 6.25v-1A.75.75 0 0 0 12.5 4.5Z"></path>
</svg>